<svg xmlns="http://www.w3.org/2000/svg" viewBox="0 0 314 146.4">
  <defs>
    <style>
      .cls-1 {
        fill: #72ceff;
        font-size: 26px;
        font-family: HelveticaNeue-CondensedBlack, Helvetica Neue;
        font-weight: 800;
      }

      .cls-2 {
        fill: #333;
      }

      .cls-3 {
        fill: none;
      }
    </style>
  </defs>
  <g id="Logo" transform="translate(-759 627.4)">
    <g id="discogs-logo" transform="translate(763.3 -627.4)">
      <text id="REACTJS_DATABASE_SEARCH" data-name="REACTJS DATABASE SEARCH" class="cls-1" transform="translate(-4.3 115.4)"><tspan x="0" y="25">REACTJS</tspan><tspan class="cls-2" y="25" xml:space="preserve"> DATABASE SEARCH</tspan></text>
      <path id="Path_1" data-name="Path 1" class="cls-2" d="M277.135,32.267a.6.6,0,0,1-.335-.067A.728.728,0,0,0,277.135,32.267Z" transform="translate(-91.535 -10.648)"/>
      <path id="Path_2" data-name="Path 2" class="cls-2" d="M18.272,0H0V91.494H21.485c11.244,0,19.075-3.347,23.56-9.973s6.693-18.741,6.693-36.21q0-25.8-6.693-35.54C40.56,3.28,31.658,0,18.272,0ZM30.32,76.97c-1.606,3.079-4.484,4.551-8.634,4.551h-3.28V10.04h3.28c4.217,0,7.095,2.61,8.7,7.764S32.8,32.461,32.8,46.249C32.729,63.651,31.926,73.892,30.32,76.97Z" transform="translate(0 0)"/>
      <rect id="Rectangle_1" data-name="Rectangle 1" class="cls-2" width="17.268" height="15.996" transform="translate(55.285 0.067)"/>
      <rect id="Rectangle_2" data-name="Rectangle 2" class="cls-2" width="17.268" height="70.077" transform="translate(55.285 21.418)"/>
      <path id="Path_3" data-name="Path 3" class="cls-2" d="M138.439,62.057c-5.488-4.819-8.768-8.1-9.839-9.906a10.653,10.653,0,0,1-1.606-5.555,4.743,4.743,0,0,1,1.406-3.681,4.859,4.859,0,0,1,3.48-1.272,4.555,4.555,0,0,1,3.882,1.941,8.476,8.476,0,0,1,1.406,5.087h13.788c0-5.756-1.673-10.24-4.953-13.386S137.971,30.6,131.746,30.6c-5.823,0-10.508,1.539-14.055,4.551a15.487,15.487,0,0,0-5.354,12.315,32.2,32.2,0,0,0,2.142,12.449c1.406,3.347,4.752,7.3,10.04,11.914a117.276,117.276,0,0,1,8.969,8.3c1.807,1.941,2.744,3.748,2.744,5.421a5.747,5.747,0,0,1-1.272,4.083,5.946,5.946,0,0,1-7.965-.4c-.937-1.138-1.406-3.012-1.406-5.555H111.6c0,6.158,1.673,10.843,5.02,13.922s8.3,4.618,14.926,4.618c6.158,0,10.977-1.673,14.524-4.953s5.288-7.9,5.288-13.855a19.612,19.612,0,0,0-2.811-10.374C146.672,69.955,143.325,66.341,138.439,62.057Z" transform="translate(-36.905 -10.119)"/>
      <path id="Path_4" data-name="Path 4" class="cls-2" d="M434.346,73.134c-1.874-3.079-5.221-6.76-10.04-10.977-5.488-4.819-8.768-8.1-9.839-9.906a10.652,10.652,0,0,1-1.606-5.555,4.743,4.743,0,0,1,1.406-3.681,4.859,4.859,0,0,1,3.48-1.272,4.555,4.555,0,0,1,3.882,1.941,8.476,8.476,0,0,1,1.406,5.087h13.788c0-5.756-1.673-10.24-4.953-13.386S423.838,30.7,417.613,30.7c-5.823,0-10.508,1.539-14.055,4.551A15.487,15.487,0,0,0,398.2,47.567a32.2,32.2,0,0,0,2.142,12.449c1.406,3.347,4.752,7.3,10.04,11.914a117.277,117.277,0,0,1,8.969,8.3c1.807,1.941,2.744,3.748,2.744,5.421a5.474,5.474,0,0,1-1.339,4.083,5.946,5.946,0,0,1-7.965-.4c-.937-1.138-1.406-3.012-1.406-5.555H397.4c0,6.158,1.673,10.843,5.02,13.922s8.3,4.618,14.926,4.618c6.158,0,10.977-1.673,14.524-4.953s5.288-7.9,5.288-13.855A20.723,20.723,0,0,0,434.346,73.134Z" transform="translate(-131.417 -10.152)"/>
      <path id="Path_5" data-name="Path 5" class="cls-2" d="M262,81.307A10.312,10.312,0,0,1,272.307,71h0a10.312,10.312,0,0,1,10.307,10.307h0a10.312,10.312,0,0,1-10.307,10.307h0A10.312,10.312,0,0,1,262,81.307Zm.469,0a9.855,9.855,0,0,0,9.839,9.839h0a9.855,9.855,0,0,0,9.839-9.839h0a9.855,9.855,0,0,0-9.839-9.839h0a9.812,9.812,0,0,0-9.839,9.839Z" transform="translate(-86.641 -23.479)"/>
      <path id="Path_6" data-name="Path 6" class="cls-2" d="M278.213,85.606A1.606,1.606,0,1,1,276.606,84,1.629,1.629,0,0,1,278.213,85.606Z" transform="translate(-90.94 -27.778)"/>
      <path id="Path_7" data-name="Path 7" class="cls-2" d="M207.672,84.212h-6.492c-.268,3.012-.736,4.953-1.472,5.89a4.04,4.04,0,0,1-3.413,1.339c-2.476,0-4.083-1.472-4.752-4.351-.736-2.878-1.071-9.772-1.071-20.682,0-9.437.335-15.93.937-19.544s2.209-5.421,4.685-5.421a3.194,3.194,0,0,1,3.146,1.874c.6,1.272.937,4.016.937,8.3h7.563a38.084,38.084,0,0,1,6.358-9.5,16.311,16.311,0,0,0-3.681-6.291c-3.347-3.48-8.166-5.221-14.39-5.221-7.831,0-13.721,3.012-17.6,9.036S172.6,54.561,172.6,66.408c0,11.914,1.874,20.882,5.622,26.839,3.748,6.024,9.236,9.036,16.532,9.036q9.638,0,14.457-4.417a13.254,13.254,0,0,0,3.547-5.555A42.264,42.264,0,0,1,207.672,84.212Z" transform="translate(-57.077 -10.119)"/>
      <path id="Path_8" data-name="Path 8" class="cls-2" d="M332.089,68.014A37.778,37.778,0,0,1,327.2,86.755a21.16,21.16,0,0,0,4.618,9.1q4.116,4.217,11.445,4.217a23.353,23.353,0,0,0,7.563-1.138,7.922,7.922,0,0,0,4.35-2.945c.067.669.134,1.339.134,1.874a12.373,12.373,0,0,1,.067,1.539c0,3.681-.8,6.425-2.476,8.3s-4.217,2.878-7.7,2.878a39.908,39.908,0,0,1-7.563-.8,30.678,30.678,0,0,1-6.76-1.941l-2.142,9.571a36.794,36.794,0,0,0,8.7,2.677,51.056,51.056,0,0,0,9.437.87c7.5,0,13.386-1.874,17.8-5.622,4.351-3.748,6.559-9.036,6.559-15.863V31.537h-17.2V33.21a17.289,17.289,0,0,0-4.618-2.008A21.632,21.632,0,0,0,344,30.6a15.232,15.232,0,0,0-10.642,3.882,21.817,21.817,0,0,0-6.292,10.776c-.2.8-.469,1.74-.669,2.878a38.055,38.055,0,0,1,5.689,19.878m22.087,20.615a7.5,7.5,0,0,1-2.209,1.272,8.921,8.921,0,0,1-2.945.4,4.743,4.743,0,0,1-3.681-1.406,7.8,7.8,0,0,1-1.606-4.618c-.2-2.209-.4-5.02-.535-8.366s-.2-6.894-.2-10.642c0-2.41.067-5.087.2-8.232q.2-4.618.6-8.634c.268-2.61.8-4.351,1.74-5.288a5.727,5.727,0,0,1,4.217-1.406,16.759,16.759,0,0,1,2.343.268,8.1,8.1,0,0,1,2.075.736V88.629Z" transform="translate(-107.938 -10.119)"/>
      <g id="Group_1" data-name="Group 1" transform="translate(149.256 21.686)">
        <path id="Path_9" data-name="Path 9" class="cls-3" d="M270.753,64.944a13.442,13.442,0,0,0-9.37,23.091l-.067-.067-3.48,3.815a17.887,17.887,0,0,0,4.083,3.012l2.543-4.484h0a13.188,13.188,0,0,0,6.225,1.539,13.446,13.446,0,0,0,9.7-22.69l3.547-3.815a20.321,20.321,0,0,0-4.016-3.146l-2.476,4.551A13.54,13.54,0,0,0,270.753,64.944Z" transform="translate(-234.343 -42.255)"/>
        <path id="Path_10" data-name="Path 10" class="cls-3" d="M249.747,113.6l-3.547,3.882a29.184,29.184,0,0,0,6.358,4.618l2.61-4.618A22.791,22.791,0,0,1,249.747,113.6Z" transform="translate(-230.672 -59.252)"/>
        <path id="Path_11" data-name="Path 11" class="cls-3" d="M301.121,55.4l3.547-3.882a32.252,32.252,0,0,0-6.425-4.819L295.7,51.318A27.4,27.4,0,0,1,301.121,55.4Z" transform="translate(-247.041 -37.129)"/>
        <path id="Path_12" data-name="Path 12" class="cls-3" d="M295.717,62.364l3.547-3.815a23.3,23.3,0,0,0-5.221-3.949L291.5,59.151A16.747,16.747,0,0,1,295.717,62.364Z" transform="translate(-245.652 -39.741)"/>
        <path id="Path_13" data-name="Path 13" class="cls-3" d="M255.747,107.1l-3.547,3.815a24.937,24.937,0,0,0,5.221,3.815l2.543-4.551A17.514,17.514,0,0,1,255.747,107.1Z" transform="translate(-232.656 -57.103)"/>
        <path id="Path_14" data-name="Path 14" class="cls-2" d="M249.6,77.207a18.648,18.648,0,0,0,5.689,13.386l3.48-3.815.067.067a13.173,13.173,0,0,1-4.083-9.638,13.454,13.454,0,0,1,13.453-13.453,13.165,13.165,0,0,1,6.693,1.807l2.476-4.551a18.616,18.616,0,0,0-27.776,16.2Z" transform="translate(-231.796 -41.064)"/>
        <path id="Path_15" data-name="Path 15" class="cls-2" d="M286.454,79.952A13.44,13.44,0,0,1,273.068,93.4a12.993,12.993,0,0,1-6.225-1.539h0L264.3,96.35A18.6,18.6,0,0,0,286.32,66.9l-3.547,3.815A13.348,13.348,0,0,1,286.454,79.952Z" transform="translate(-236.658 -43.809)"/>
        <path id="Path_16" data-name="Path 16" class="cls-2" d="M240.8,74.362A24.51,24.51,0,0,0,248.43,92.1l3.547-3.815a19.048,19.048,0,0,1-5.957-13.855A19.281,19.281,0,0,1,265.3,55.153a19.025,19.025,0,0,1,9.5,2.543l2.543-4.551A24.527,24.527,0,0,0,240.8,74.362Z" transform="translate(-228.886 -38.22)"/>
        <path id="Path_17" data-name="Path 17" class="cls-2" d="M290.822,77.835a19.289,19.289,0,0,1-28.379,17L259.9,99.387A24.478,24.478,0,0,0,288.814,60.5l-3.547,3.815A18.96,18.96,0,0,1,290.822,77.835Z" transform="translate(-235.203 -41.692)"/>
        <path id="Path_18" data-name="Path 18" class="cls-2" d="M295.257,75.752a25.223,25.223,0,0,1-25.166,25.166,24.858,24.858,0,0,1-11.981-3.012l-2.61,4.618a30.364,30.364,0,0,0,44.978-26.638,30.217,30.217,0,0,0-9.1-21.686l-3.547,3.882A24.22,24.22,0,0,1,295.257,75.752Z" transform="translate(-233.747 -39.609)"/>
        <path id="Path_19" data-name="Path 19" class="cls-2" d="M231.9,71.386a30.462,30.462,0,0,0,9.5,22.087l3.547-3.882A25.139,25.139,0,0,1,262.287,46.22,24.7,24.7,0,0,1,274.6,49.5l2.543-4.618a30.385,30.385,0,0,0-45.245,26.5Z" transform="translate(-225.943 -35.244)"/>
        <path id="Path_20" data-name="Path 20" class="cls-2" d="M294.035,47.6l-3.48,3.748a31.007,31.007,0,0,1-36.544,49.395l-2.61,4.618A36.214,36.214,0,0,0,294.035,47.6Z" transform="translate(-232.392 -37.427)"/>
        <path id="Path_21" data-name="Path 21" class="cls-2" d="M228.288,68.543A30.992,30.992,0,0,1,274.537,41.5l2.476-4.484A35.426,35.426,0,0,0,259.879,32.4h-.6A36.279,36.279,0,0,0,223,68.342h0v.335a36.178,36.178,0,0,0,11.445,26.371l3.614-3.882A31.132,31.132,0,0,1,228.288,68.543Z" transform="translate(-223 -32.4)"/>
      </g>
      <path id="Path_22" data-name="Path 22" class="cls-2" d="M441.9,20.677a5.36,5.36,0,0,1,1-1.406,5.528,5.528,0,0,1,1.473-.937,4.692,4.692,0,0,1,3.48,0,4.254,4.254,0,0,1,1.472.937,5.359,5.359,0,0,1,1,1.406,4.574,4.574,0,0,1,0,3.748,5.359,5.359,0,0,1-1,1.406,4.091,4.091,0,0,1-1.472.87,4.692,4.692,0,0,1-3.48,0,5.351,5.351,0,0,1-1.473-.87,4.444,4.444,0,0,1-1-1.406,4.276,4.276,0,0,1-.4-1.874A7.081,7.081,0,0,1,441.9,20.677Zm1.138,3.28a4.144,4.144,0,0,0,.736,1.138,3.825,3.825,0,0,0,1.071.736,3.48,3.48,0,0,0,2.677,0,3.058,3.058,0,0,0,1.071-.736,3.341,3.341,0,0,0,.736-1.138,3.824,3.824,0,0,0,0-2.811,4.144,4.144,0,0,0-.736-1.138,3.825,3.825,0,0,0-1.071-.736,3.48,3.48,0,0,0-2.677,0,3.058,3.058,0,0,0-1.071.736,3.341,3.341,0,0,0-.736,1.138,3.1,3.1,0,0,0-.268,1.406A3.292,3.292,0,0,0,443.039,23.957Zm3.213-3.949a2.994,2.994,0,0,1,1.472.335,1.258,1.258,0,0,1,.535,1.138,1.954,1.954,0,0,1-.134.6,1.231,1.231,0,0,1-.669.669c-.134.067-.335.067-.535.134l1.339,2.209h-1.071l-1.2-2.142h-.6v2.142h-1V20.008Zm0,2.075a2.406,2.406,0,0,0,.736-.134c.2-.067.268-.268.268-.6a.5.5,0,0,0-.067-.335.924.924,0,0,0-.268-.2.5.5,0,0,0-.335-.067h-1.2v1.339Z" transform="translate(-146 -5.952)"/>
    </g>
  </g>
</svg>
